<svg width="739" height="739" viewBox="0 0 739 739" fill="none" xmlns="http://www.w3.org/2000/svg">
<path fill-rule="evenodd" clip-rule="evenodd" d="M494.331 177.26C494.331 214.489 524.511 244.669 561.74 244.669H671.591C708.82 244.669 739 274.849 739 312.078V426.922C739 464.151 708.82 494.331 671.591 494.331H561.74C524.511 494.331 494.331 524.511 494.331 561.74V671.591C494.331 708.82 464.151 739 426.922 739H312.078C274.849 739 244.669 708.82 244.669 671.591V561.74C244.669 524.511 214.489 494.331 177.26 494.331H67.4088C30.1799 494.331 0 464.151 0 426.922V312.078C0 274.849 30.1799 244.669 67.4088 244.669H177.26C214.489 244.669 244.669 214.489 244.669 177.26V67.4088C244.669 30.1799 274.849 0 312.078 0H426.922C464.151 0 494.331 30.1799 494.331 67.4088V177.26ZM249.662 421.929C249.662 459.158 279.842 489.338 317.071 489.338H421.929C459.158 489.338 489.338 459.158 489.338 421.929V317.071C489.338 279.842 459.158 249.662 421.929 249.662H317.071C279.842 249.662 249.662 279.842 249.662 317.071V421.929Z" fill="black"/>
</svg>
